# xmcd
#
# Track frame offsets:
#	150
#	15910
#	29560
#	51493
#	72513
#	89918
#	107378
#	129195
#	159543
#
# Disc length: 2318 seconds
#
# Revision: 0
# Processed by: cddbd v1.4PL0 Copyright (c) Steve Scherf et al.
# Submitted via: EasyCDDAExtractor 4.6.0.1
#
DISCID=74090c09
DTITLE=Pekon Bluesputki - Ote Orfeuksesta
DYEAR=1991
DGENRE=Blues
TTITLE0=Kotiduuni blues
TTITLE1=Blues in Paris
TTITLE2=Blues 89
TTITLE3=Miksi muuttua en voi
TTITLE4=Matkalla
TTITLE5=Mopolla kotiin
TTITLE6=Hello muddy
TTITLE7=Hyvää yötä blues
TTITLE8=Dancetube (the vaimo vainoo mix)
EXTD=
EXTT0=
EXTT1=
EXTT2=
EXTT3=
EXTT4=
EXTT5=
EXTT6=
EXTT7=
EXTT8=
PLAYORDER=
